<mxfile host="app.diagrams.net" agent="Mozilla/5.0 (Macintosh; Intel Mac OS X 10_15_7) AppleWebKit/537.36 (KHTML, like Gecko) Chrome/126.0.0.0 Whale/3.27.254.15 Safari/537.36" version="24.7.16">
  <diagram name="페이지-1" id="SM_KS9lHNuGRrfOKucWg">
    <mxGraphModel dx="616" dy="1171" grid="1" gridSize="10" guides="1" tooltips="1" connect="1" arrows="1" fold="1" page="1" pageScale="1" pageWidth="1169" pageHeight="827" math="0" shadow="0">
      <root>
        <mxCell id="0" />
        <mxCell id="1" parent="0" />
        <mxCell id="8z8tQ7SswbbUrmPlCuh1-1" value="" style="ellipse;whiteSpace=wrap;html=1;aspect=fixed;" vertex="1" parent="1">
          <mxGeometry x="310" y="60" width="20" height="20" as="geometry" />
        </mxCell>
        <mxCell id="8z8tQ7SswbbUrmPlCuh1-2" value="void" style="text;html=1;align=center;verticalAlign=middle;whiteSpace=wrap;rounded=0;" vertex="1" parent="1">
          <mxGeometry x="290" y="30" width="60" height="30" as="geometry" />
        </mxCell>
        <mxCell id="8z8tQ7SswbbUrmPlCuh1-4" style="edgeStyle=orthogonalEdgeStyle;rounded=0;orthogonalLoop=1;jettySize=auto;html=1;entryX=0.5;entryY=1;entryDx=0;entryDy=0;" edge="1" parent="1" source="8z8tQ7SswbbUrmPlCuh1-3" target="8z8tQ7SswbbUrmPlCuh1-1">
          <mxGeometry relative="1" as="geometry" />
        </mxCell>
        <mxCell id="8z8tQ7SswbbUrmPlCuh1-8" style="edgeStyle=orthogonalEdgeStyle;rounded=0;orthogonalLoop=1;jettySize=auto;html=1;entryX=0;entryY=0.5;entryDx=0;entryDy=0;" edge="1" parent="1" source="8z8tQ7SswbbUrmPlCuh1-3" target="8z8tQ7SswbbUrmPlCuh1-7">
          <mxGeometry relative="1" as="geometry" />
        </mxCell>
        <mxCell id="8z8tQ7SswbbUrmPlCuh1-13" style="edgeStyle=orthogonalEdgeStyle;rounded=0;orthogonalLoop=1;jettySize=auto;html=1;exitX=0.25;exitY=1;exitDx=0;exitDy=0;entryX=0.201;entryY=-0.031;entryDx=0;entryDy=0;entryPerimeter=0;" edge="1" parent="1" source="8z8tQ7SswbbUrmPlCuh1-3" target="8z8tQ7SswbbUrmPlCuh1-3">
          <mxGeometry relative="1" as="geometry">
            <mxPoint x="302.33333333333337" y="200" as="targetPoint" />
            <Array as="points">
              <mxPoint x="303" y="250" />
              <mxPoint x="270" y="250" />
              <mxPoint x="270" y="190" />
              <mxPoint x="299" y="190" />
            </Array>
          </mxGeometry>
        </mxCell>
        <mxCell id="8z8tQ7SswbbUrmPlCuh1-3" value="&lt;font style=&quot;font-size: 15px;&quot;&gt;&lt;b&gt;KStream&lt;/b&gt;&lt;/font&gt;" style="text;html=1;align=center;verticalAlign=middle;whiteSpace=wrap;rounded=0;" vertex="1" parent="1">
          <mxGeometry x="285" y="210" width="70" height="30" as="geometry" />
        </mxCell>
        <mxCell id="8z8tQ7SswbbUrmPlCuh1-5" value="&lt;font color=&quot;#4747b3&quot;&gt;process()&lt;/font&gt;" style="text;html=1;align=center;verticalAlign=middle;whiteSpace=wrap;rounded=0;" vertex="1" parent="1">
          <mxGeometry x="320" y="110" width="60" height="30" as="geometry" />
        </mxCell>
        <mxCell id="8z8tQ7SswbbUrmPlCuh1-6" value="&lt;font color=&quot;#4d4d4d&quot;&gt;Can be stateful or stateless&lt;/font&gt;" style="rounded=0;whiteSpace=wrap;html=1;dashed=1;strokeColor=#CCCCCC;" vertex="1" parent="1">
          <mxGeometry x="330" y="80" width="150" height="30" as="geometry" />
        </mxCell>
        <mxCell id="8z8tQ7SswbbUrmPlCuh1-15" style="rounded=0;orthogonalLoop=1;jettySize=auto;html=1;entryX=1;entryY=0;entryDx=0;entryDy=0;" edge="1" parent="1" source="8z8tQ7SswbbUrmPlCuh1-7" target="8z8tQ7SswbbUrmPlCuh1-10">
          <mxGeometry relative="1" as="geometry">
            <mxPoint x="450" y="440" as="targetPoint" />
          </mxGeometry>
        </mxCell>
        <mxCell id="8z8tQ7SswbbUrmPlCuh1-7" value="&lt;font style=&quot;font-size: 15px;&quot;&gt;&lt;b&gt;KGroupedStream&lt;/b&gt;&lt;/font&gt;" style="text;html=1;align=center;verticalAlign=middle;whiteSpace=wrap;rounded=0;" vertex="1" parent="1">
          <mxGeometry x="560" y="210" width="130" height="30" as="geometry" />
        </mxCell>
        <mxCell id="8z8tQ7SswbbUrmPlCuh1-9" value="&lt;font color=&quot;#006600&quot;&gt;groupBy()&lt;/font&gt;&lt;div&gt;&lt;font color=&quot;#006600&quot;&gt;groupByKey()&lt;/font&gt;&lt;/div&gt;" style="text;html=1;align=center;verticalAlign=middle;whiteSpace=wrap;rounded=0;" vertex="1" parent="1">
          <mxGeometry x="420" y="190" width="85" height="30" as="geometry" />
        </mxCell>
        <mxCell id="8z8tQ7SswbbUrmPlCuh1-11" style="edgeStyle=orthogonalEdgeStyle;rounded=0;orthogonalLoop=1;jettySize=auto;html=1;entryX=0.5;entryY=1;entryDx=0;entryDy=0;" edge="1" parent="1" source="8z8tQ7SswbbUrmPlCuh1-10" target="8z8tQ7SswbbUrmPlCuh1-3">
          <mxGeometry relative="1" as="geometry" />
        </mxCell>
        <mxCell id="8z8tQ7SswbbUrmPlCuh1-17" style="edgeStyle=orthogonalEdgeStyle;rounded=0;orthogonalLoop=1;jettySize=auto;html=1;exitX=1;exitY=0.25;exitDx=0;exitDy=0;entryX=0;entryY=0.25;entryDx=0;entryDy=0;" edge="1" parent="1" source="8z8tQ7SswbbUrmPlCuh1-10" target="8z8tQ7SswbbUrmPlCuh1-16">
          <mxGeometry relative="1" as="geometry">
            <mxPoint x="480" y="457.59036144578306" as="targetPoint" />
          </mxGeometry>
        </mxCell>
        <mxCell id="8z8tQ7SswbbUrmPlCuh1-24" style="edgeStyle=orthogonalEdgeStyle;rounded=0;orthogonalLoop=1;jettySize=auto;html=1;exitX=0.25;exitY=1;exitDx=0;exitDy=0;entryX=0.25;entryY=0;entryDx=0;entryDy=0;" edge="1" parent="1" source="8z8tQ7SswbbUrmPlCuh1-10" target="8z8tQ7SswbbUrmPlCuh1-10">
          <mxGeometry relative="1" as="geometry">
            <mxPoint x="310" y="440" as="targetPoint" />
            <Array as="points">
              <mxPoint x="306" y="490" />
              <mxPoint x="280" y="490" />
              <mxPoint x="280" y="430" />
              <mxPoint x="306" y="430" />
            </Array>
          </mxGeometry>
        </mxCell>
        <mxCell id="8z8tQ7SswbbUrmPlCuh1-10" value="&lt;font style=&quot;font-size: 15px;&quot;&gt;&lt;b&gt;KTable&lt;/b&gt;&lt;/font&gt;" style="text;html=1;align=center;verticalAlign=middle;whiteSpace=wrap;rounded=0;" vertex="1" parent="1">
          <mxGeometry x="292.5" y="450" width="55" height="30" as="geometry" />
        </mxCell>
        <mxCell id="8z8tQ7SswbbUrmPlCuh1-14" value="&lt;font color=&quot;#006600&quot;&gt;toStream()&lt;/font&gt;" style="text;html=1;align=center;verticalAlign=middle;whiteSpace=wrap;rounded=0;" vertex="1" parent="1">
          <mxGeometry x="320" y="330" width="70" height="30" as="geometry" />
        </mxCell>
        <mxCell id="8z8tQ7SswbbUrmPlCuh1-18" style="edgeStyle=orthogonalEdgeStyle;rounded=0;orthogonalLoop=1;jettySize=auto;html=1;exitX=0;exitY=0.75;exitDx=0;exitDy=0;entryX=1;entryY=0.75;entryDx=0;entryDy=0;" edge="1" parent="1" source="8z8tQ7SswbbUrmPlCuh1-16" target="8z8tQ7SswbbUrmPlCuh1-10">
          <mxGeometry relative="1" as="geometry" />
        </mxCell>
        <mxCell id="8z8tQ7SswbbUrmPlCuh1-16" value="&lt;font style=&quot;font-size: 15px;&quot;&gt;&lt;b&gt;KGroupedTable&lt;/b&gt;&lt;/font&gt;" style="text;html=1;align=center;verticalAlign=middle;whiteSpace=wrap;rounded=0;" vertex="1" parent="1">
          <mxGeometry x="560" y="450" width="120" height="30" as="geometry" />
        </mxCell>
        <mxCell id="8z8tQ7SswbbUrmPlCuh1-19" value="&lt;font color=&quot;#4747b3&quot;&gt;aggregate()&lt;/font&gt;&lt;div&gt;&lt;font color=&quot;#4747b3&quot;&gt;count()&lt;/font&gt;&lt;/div&gt;&lt;div&gt;&lt;font color=&quot;#4747b3&quot;&gt;reduce()&lt;/font&gt;&lt;/div&gt;" style="text;html=1;align=center;verticalAlign=middle;whiteSpace=wrap;rounded=0;" vertex="1" parent="1">
          <mxGeometry x="432.5" y="280" width="60" height="50" as="geometry" />
        </mxCell>
        <mxCell id="8z8tQ7SswbbUrmPlCuh1-20" value="&lt;font color=&quot;#4d4d4d&quot;&gt;Can be windowed&lt;/font&gt;&lt;div&gt;&lt;font color=&quot;#4d4d4d&quot;&gt;or non-windowed&lt;/font&gt;&lt;/div&gt;" style="rounded=0;whiteSpace=wrap;html=1;dashed=1;strokeColor=#CCCCCC;" vertex="1" parent="1">
          <mxGeometry x="432.5" y="250" width="107.5" height="30" as="geometry" />
        </mxCell>
        <mxCell id="8z8tQ7SswbbUrmPlCuh1-21" value="&lt;font color=&quot;#006600&quot;&gt;groupBy()&lt;/font&gt;" style="text;html=1;align=center;verticalAlign=middle;whiteSpace=wrap;rounded=0;" vertex="1" parent="1">
          <mxGeometry x="420" y="420" width="70" height="30" as="geometry" />
        </mxCell>
        <mxCell id="8z8tQ7SswbbUrmPlCuh1-22" value="&lt;font color=&quot;#4747b3&quot;&gt;aggregate()&lt;/font&gt;&lt;div&gt;&lt;font color=&quot;#4747b3&quot;&gt;count()&lt;/font&gt;&lt;/div&gt;&lt;div&gt;&lt;font color=&quot;#4747b3&quot;&gt;reduce()&lt;/font&gt;&lt;/div&gt;" style="text;html=1;align=center;verticalAlign=middle;whiteSpace=wrap;rounded=0;" vertex="1" parent="1">
          <mxGeometry x="425" y="480" width="60" height="50" as="geometry" />
        </mxCell>
        <mxCell id="8z8tQ7SswbbUrmPlCuh1-23" value="&lt;font color=&quot;#4d4d4d&quot;&gt;Always non-windowed&lt;/font&gt;" style="rounded=0;whiteSpace=wrap;html=1;dashed=1;strokeColor=#CCCCCC;" vertex="1" parent="1">
          <mxGeometry x="420" y="530" width="130" height="30" as="geometry" />
        </mxCell>
        <mxCell id="8z8tQ7SswbbUrmPlCuh1-25" value="&lt;font color=&quot;#4747b3&quot;&gt;join()&lt;/font&gt;&lt;div&gt;&lt;font color=&quot;#4747b3&quot;&gt;leftJoin()&lt;/font&gt;&lt;/div&gt;&lt;div&gt;&lt;font color=&quot;#4747b3&quot;&gt;outerJoin()&lt;/font&gt;&lt;/div&gt;" style="text;html=1;align=center;verticalAlign=middle;whiteSpace=wrap;rounded=0;" vertex="1" parent="1">
          <mxGeometry x="180" y="150" width="60" height="50" as="geometry" />
        </mxCell>
        <mxCell id="8z8tQ7SswbbUrmPlCuh1-26" style="edgeStyle=orthogonalEdgeStyle;rounded=0;orthogonalLoop=1;jettySize=auto;html=1;exitX=0.5;exitY=1;exitDx=0;exitDy=0;" edge="1" parent="1" source="8z8tQ7SswbbUrmPlCuh1-25" target="8z8tQ7SswbbUrmPlCuh1-25">
          <mxGeometry relative="1" as="geometry" />
        </mxCell>
        <mxCell id="8z8tQ7SswbbUrmPlCuh1-27" value="&lt;font color=&quot;#4747b3&quot;&gt;transform()&lt;/font&gt;&lt;div&gt;&lt;font color=&quot;#4747b3&quot;&gt;transformValues()&lt;/font&gt;&lt;/div&gt;" style="text;html=1;align=center;verticalAlign=middle;whiteSpace=wrap;rounded=0;" vertex="1" parent="1">
          <mxGeometry x="160" y="220" width="100" height="50" as="geometry" />
        </mxCell>
        <mxCell id="8z8tQ7SswbbUrmPlCuh1-28" value="&lt;font color=&quot;#4d4d4d&quot;&gt;Stream-Stream joins: windwoed&lt;/font&gt;&lt;div&gt;&lt;font color=&quot;#4d4d4d&quot;&gt;Stream-table joins: non-windowed&lt;/font&gt;&lt;/div&gt;" style="rounded=0;whiteSpace=wrap;html=1;dashed=1;strokeColor=#CCCCCC;" vertex="1" parent="1">
          <mxGeometry x="110" y="120" width="190" height="30" as="geometry" />
        </mxCell>
        <mxCell id="8z8tQ7SswbbUrmPlCuh1-30" value="&lt;font color=&quot;#4d4d4d&quot;&gt;Can be stateful or stateless&lt;/font&gt;" style="rounded=0;whiteSpace=wrap;html=1;dashed=1;strokeColor=#CCCCCC;" vertex="1" parent="1">
          <mxGeometry x="130" y="270" width="150" height="30" as="geometry" />
        </mxCell>
        <mxCell id="8z8tQ7SswbbUrmPlCuh1-31" value="&lt;font color=&quot;#4747b3&quot;&gt;join()&lt;/font&gt;&lt;div&gt;&lt;font color=&quot;#4747b3&quot;&gt;leftJoin()&lt;/font&gt;&lt;/div&gt;&lt;div&gt;&lt;font color=&quot;#4747b3&quot;&gt;outerJoin()&lt;/font&gt;&lt;/div&gt;" style="text;html=1;align=center;verticalAlign=middle;whiteSpace=wrap;rounded=0;" vertex="1" parent="1">
          <mxGeometry x="180" y="440" width="60" height="50" as="geometry" />
        </mxCell>
        <mxCell id="8z8tQ7SswbbUrmPlCuh1-32" value="&lt;font color=&quot;#4d4d4d&quot;&gt;Table-table joins: non-windowed&lt;/font&gt;" style="rounded=0;whiteSpace=wrap;html=1;dashed=1;strokeColor=#CCCCCC;" vertex="1" parent="1">
          <mxGeometry x="90" y="399" width="190" height="30" as="geometry" />
        </mxCell>
        <mxCell id="8z8tQ7SswbbUrmPlCuh1-33" value="&lt;font style=&quot;font-size: 15px;&quot;&gt;&lt;b&gt;GlobalKTable&lt;/b&gt;&lt;/font&gt;" style="text;html=1;align=center;verticalAlign=middle;whiteSpace=wrap;rounded=0;" vertex="1" parent="1">
          <mxGeometry x="271.25" y="570" width="97.5" height="30" as="geometry" />
        </mxCell>
        <mxCell id="8z8tQ7SswbbUrmPlCuh1-34" value="&lt;font color=&quot;#4d4d4d&quot;&gt;no direct operations&lt;/font&gt;" style="rounded=0;whiteSpace=wrap;html=1;dashed=1;strokeColor=#CCCCCC;" vertex="1" parent="1">
          <mxGeometry x="260" y="600" width="120" height="30" as="geometry" />
        </mxCell>
        <mxCell id="8z8tQ7SswbbUrmPlCuh1-35" value="&lt;font color=&quot;#4747b3&quot;&gt;Stateful operations&lt;/font&gt;&lt;div&gt;&lt;font color=&quot;#006600&quot;&gt;Stateless operations&lt;/font&gt;&lt;/div&gt;" style="rounded=0;whiteSpace=wrap;html=1;dashed=1;strokeColor=#CCCCCC;" vertex="1" parent="1">
          <mxGeometry x="170" y="40" width="130" height="30" as="geometry" />
        </mxCell>
      </root>
    </mxGraphModel>
  </diagram>
</mxfile>
